<svg xmlns="http://www.w3.org/2000/svg" xmlns:xlink="http://www.w3.org/1999/xlink" width="1920" zoomAndPan="magnify" viewBox="0 0 1440 809.999993" height="1080" preserveAspectRatio="xMidYMid meet" version="1.0"><defs><clipPath id="e9a1096342"><path d="M 465 248 L 958 248 L 958 528 L 465 528 Z M 465 248 " clip-rule="nonzero"/></clipPath><clipPath id="506b1327a1"><path d="M 376.910156 276.820312 L 1015.316406 174.84375 L 1063.109375 474.050781 L 424.703125 576.027344 Z M 376.910156 276.820312 " clip-rule="nonzero"/></clipPath><clipPath id="42d324029c"><path d="M 376.910156 276.820312 L 1015.316406 174.84375 L 1063.109375 474.050781 L 424.703125 576.027344 Z M 376.910156 276.820312 " clip-rule="nonzero"/></clipPath><clipPath id="7aa544e30c"><path d="M 376.910156 276.820312 L 1015.316406 174.84375 L 1063.109375 474.050781 L 424.703125 576.027344 Z M 376.910156 276.820312 " clip-rule="nonzero"/></clipPath><clipPath id="706b40da0c"><path d="M 456.136719 328.105469 L 958.046875 247.9375 L 995.910156 484.96875 L 494 565.140625 Z M 456.136719 328.105469 " clip-rule="nonzero"/></clipPath><clipPath id="92f15a0611"><path d="M 456.136719 328.105469 L 958.046875 247.9375 L 995.882812 484.796875 L 493.972656 564.964844 Z M 456.136719 328.105469 " clip-rule="nonzero"/></clipPath><clipPath id="865a9a730d"><path d="M 926 188 L 1022 188 L 1022 235 L 926 235 Z M 926 188 " clip-rule="nonzero"/></clipPath><clipPath id="f06aa1beec"><path d="M 376.910156 276.820312 L 1015.316406 174.84375 L 1063.109375 474.050781 L 424.703125 576.027344 Z M 376.910156 276.820312 " clip-rule="nonzero"/></clipPath><clipPath id="42a0939c20"><path d="M 376.910156 276.820312 L 1015.316406 174.84375 L 1063.109375 474.050781 L 424.703125 576.027344 Z M 376.910156 276.820312 " clip-rule="nonzero"/></clipPath><clipPath id="9649075f5f"><path d="M 376.910156 276.820312 L 1015.316406 174.84375 L 1063.109375 474.050781 L 424.703125 576.027344 Z M 376.910156 276.820312 " clip-rule="nonzero"/></clipPath><clipPath id="e1522214ba"><path d="M 925.863281 189.140625 L 1015.382812 174.84375 L 1024.058594 229.164062 L 934.542969 243.460938 Z M 925.863281 189.140625 " clip-rule="nonzero"/></clipPath><clipPath id="3d1dc68507"><path d="M 925.863281 189.140625 L 1015.28125 174.859375 L 1023.960938 229.179688 L 934.542969 243.460938 Z M 925.863281 189.140625 " clip-rule="nonzero"/></clipPath><clipPath id="0923ac5911"><path d="M 396 321 L 470 321 L 470 395 L 396 395 Z M 396 321 " clip-rule="nonzero"/></clipPath><clipPath id="407b25f179"><path d="M 376.910156 276.820312 L 1015.316406 174.84375 L 1063.109375 474.050781 L 424.703125 576.027344 Z M 376.910156 276.820312 " clip-rule="nonzero"/></clipPath><clipPath id="f26f42b7eb"><path d="M 376.910156 276.820312 L 1015.316406 174.84375 L 1063.109375 474.050781 L 424.703125 576.027344 Z M 376.910156 276.820312 " clip-rule="nonzero"/></clipPath><clipPath id="473e6ac686"><path d="M 376.910156 276.820312 L 1015.316406 174.84375 L 1063.109375 474.050781 L 424.703125 576.027344 Z M 376.910156 276.820312 " clip-rule="nonzero"/></clipPath></defs><g clip-path="url(#e9a1096342)"><g clip-path="url(#506b1327a1)"><g clip-path="url(#42d324029c)"><g clip-path="url(#7aa544e30c)"><g clip-path="url(#706b40da0c)"><g clip-path="url(#92f15a0611)"><path fill="#100f0d" d="M 465.53125 385.617188 C 465.53125 385.617188 495.503906 434.644531 559.03125 480.671875 C 648.597656 545.554688 841.074219 572.574219 931.132812 364.039062 C 945.214844 331.4375 952.28125 296.46875 957.492188 248.082031 C 957.492188 248.082031 917.925781 392.027344 769.550781 448.804688 C 692.582031 478.253906 598.523438 480.347656 465.53125 385.617188 " fill-opacity="1" fill-rule="nonzero"/></g></g></g></g></g></g><g clip-path="url(#865a9a730d)"><g clip-path="url(#f06aa1beec)"><g clip-path="url(#42a0939c20)"><g clip-path="url(#9649075f5f)"><g clip-path="url(#e1522214ba)"><g clip-path="url(#3d1dc68507)"><path fill="#100f0d" d="M 1015.933594 209.097656 C 1014.105469 208.886719 1012.308594 209.601562 1010.933594 210.820312 C 1004.804688 216.242188 997.117188 220.046875 988.4375 221.433594 C 966.859375 224.882812 946.429688 212.234375 939.375 192.355469 C 938.582031 190.132812 936.6875 188.484375 934.351562 188.113281 C 929.644531 187.359375 925.722656 191.890625 927.296875 196.390625 C 936.285156 222.085938 962.617188 238.464844 990.449219 234.019531 C 1001.71875 232.21875 1011.683594 227.246094 1019.601562 220.160156 C 1023.605469 216.570312 1021.582031 209.75 1015.933594 209.097656 " fill-opacity="1" fill-rule="nonzero"/></g></g></g></g></g></g><g clip-path="url(#0923ac5911)"><g clip-path="url(#407b25f179)"><g clip-path="url(#f26f42b7eb)"><g clip-path="url(#473e6ac686)"><path fill="#100f0d" d="M 457.605469 323.949219 C 456.480469 325.402344 456.167969 327.3125 456.5 329.121094 C 457.980469 337.167969 457.269531 345.714844 453.976562 353.863281 C 445.785156 374.121094 424.40625 385.085938 403.738281 380.867188 C 401.425781 380.394531 399.03125 381.167969 397.507812 382.976562 C 394.433594 386.621094 396.289062 392.316406 400.960938 393.292969 C 427.609375 398.855469 455.230469 384.765625 465.792969 358.636719 C 470.066406 348.058594 470.953125 336.953125 468.972656 326.523438 C 467.964844 321.238281 461.078125 319.445312 457.605469 323.949219 " fill-opacity="1" fill-rule="nonzero"/></g></g></g></g></svg>