<svg xmlns="http://www.w3.org/2000/svg" xmlns:xlink="http://www.w3.org/1999/xlink" width="100px" zoomAndPan="magnify" viewBox="0 0 1440 809.999993" height="100px" preserveAspectRatio="xMidYMid meet" version="1.0"><defs><clipPath id="809c0a8ae5"><path d="M 426 384 L 549 384 L 549 436 L 426 436 Z M 426 384 " clip-rule="nonzero"/></clipPath><clipPath id="8f3c2c0fd9"><path d="M 412.957031 355.675781 L 565.917969 371.207031 L 558.644531 442.839844 L 405.683594 427.304688 Z M 412.957031 355.675781 " clip-rule="nonzero"/></clipPath><clipPath id="3f70483c37"><path d="M 412.957031 355.675781 L 565.917969 371.207031 L 558.644531 442.839844 L 405.683594 427.304688 Z M 412.957031 355.675781 " clip-rule="nonzero"/></clipPath><clipPath id="adce6b6d55"><path d="M 412.957031 355.675781 L 565.917969 371.207031 L 558.644531 442.839844 L 405.683594 427.304688 Z M 412.957031 355.675781 " clip-rule="nonzero"/></clipPath><clipPath id="39e277c652"><path d="M 428.035156 372.289062 L 548.296875 384.5 L 542.535156 441.246094 L 422.273438 429.035156 Z M 428.035156 372.289062 " clip-rule="nonzero"/></clipPath><clipPath id="0830d17e76"><path d="M 428.035156 372.289062 L 548.296875 384.5 L 542.539062 441.203125 L 422.277344 428.992188 Z M 428.035156 372.289062 " clip-rule="nonzero"/></clipPath><clipPath id="53d7b46760"><path d="M 544 369 L 565 369 L 565 384 L 544 384 Z M 544 369 " clip-rule="nonzero"/></clipPath><clipPath id="31a7972615"><path d="M 412.957031 355.675781 L 565.917969 371.207031 L 558.644531 442.839844 L 405.683594 427.304688 Z M 412.957031 355.675781 " clip-rule="nonzero"/></clipPath><clipPath id="cfa4c0f09e"><path d="M 412.957031 355.675781 L 565.917969 371.207031 L 558.644531 442.839844 L 405.683594 427.304688 Z M 412.957031 355.675781 " clip-rule="nonzero"/></clipPath><clipPath id="d011cf9160"><path d="M 412.957031 355.675781 L 565.917969 371.207031 L 558.644531 442.839844 L 405.683594 427.304688 Z M 412.957031 355.675781 " clip-rule="nonzero"/></clipPath><clipPath id="fb22e5d2c6"><path d="M 544.484375 369.03125 L 565.933594 371.210938 L 564.613281 384.214844 L 543.164062 382.035156 Z M 544.484375 369.03125 " clip-rule="nonzero"/></clipPath><clipPath id="cbcf7d287a"><path d="M 544.484375 369.03125 L 565.910156 371.207031 L 564.589844 384.210938 L 543.164062 382.035156 Z M 544.484375 369.03125 " clip-rule="nonzero"/></clipPath><clipPath id="725a2c8e0f"><path d="M 410 371 L 432 371 L 432 386 L 410 386 Z M 410 371 " clip-rule="nonzero"/></clipPath><clipPath id="ace3226b81"><path d="M 412.957031 355.675781 L 565.917969 371.207031 L 558.644531 442.839844 L 405.683594 427.304688 Z M 412.957031 355.675781 " clip-rule="nonzero"/></clipPath><clipPath id="021a2af510"><path d="M 412.957031 355.675781 L 565.917969 371.207031 L 558.644531 442.839844 L 405.683594 427.304688 Z M 412.957031 355.675781 " clip-rule="nonzero"/></clipPath><clipPath id="04f7dd01ce"><path d="M 412.957031 355.675781 L 565.917969 371.207031 L 558.644531 442.839844 L 405.683594 427.304688 Z M 412.957031 355.675781 " clip-rule="nonzero"/></clipPath><clipPath id="db50e2abff"><path d="M 449.863281 343.363281 L 474.488281 343.363281 L 474.488281 367.988281 L 449.863281 367.988281 Z M 449.863281 343.363281 " clip-rule="nonzero"/></clipPath><clipPath id="bf30c57bd2"><path d="M 462.175781 343.363281 C 455.375 343.363281 449.863281 348.875 449.863281 355.675781 C 449.863281 362.476562 455.375 367.988281 462.175781 367.988281 C 468.976562 367.988281 474.488281 362.476562 474.488281 355.675781 C 474.488281 348.875 468.976562 343.363281 462.175781 343.363281 Z M 462.175781 343.363281 " clip-rule="nonzero"/></clipPath><clipPath id="5c7c173a05"><path d="M 493.3125 348.53125 L 531 348.53125 L 531 360.1875 L 493.3125 360.1875 Z M 493.3125 348.53125 " clip-rule="nonzero"/></clipPath><clipPath id="23e6c3a0e5"><path d="M 499.144531 348.53125 L 525.167969 348.53125 C 526.714844 348.53125 528.195312 349.144531 529.289062 350.238281 C 530.382812 351.328125 530.996094 352.8125 530.996094 354.359375 C 530.996094 355.90625 530.382812 357.386719 529.289062 358.480469 C 528.195312 359.574219 526.714844 360.1875 525.167969 360.1875 L 499.144531 360.1875 C 497.597656 360.1875 496.113281 359.574219 495.023438 358.480469 C 493.929688 357.386719 493.3125 355.90625 493.3125 354.359375 C 493.3125 352.8125 493.929688 351.328125 495.023438 350.238281 C 496.113281 349.144531 497.597656 348.53125 499.144531 348.53125 Z M 499.144531 348.53125 " clip-rule="nonzero"/></clipPath></defs><path fill="#000000" d="M 705.757812 541.796875 L 652.292969 488.332031 C 650.949219 486.976562 649.503906 485.738281 647.964844 484.609375 C 646.425781 483.480469 644.804688 482.480469 643.109375 481.609375 C 641.410156 480.734375 639.65625 480 637.84375 479.402344 C 636.03125 478.804688 634.179688 478.355469 632.296875 478.046875 C 630.414062 477.742188 628.515625 477.582031 626.609375 477.574219 C 624.699219 477.566406 622.800781 477.707031 620.914062 477.996094 C 619.027344 478.285156 617.175781 478.722656 615.355469 479.304688 C 613.539062 479.882812 611.777344 480.605469 610.070312 481.460938 L 580.714844 452.105469 C 582.320312 450.128906 583.863281 448.105469 585.339844 446.03125 C 586.816406 443.957031 588.222656 441.839844 589.566406 439.675781 C 590.910156 437.511719 592.179688 435.308594 593.382812 433.066406 C 594.585938 430.820312 595.71875 428.542969 596.777344 426.226562 C 597.835938 423.910156 598.820312 421.566406 599.730469 419.1875 C 600.640625 416.808594 601.472656 414.40625 602.230469 411.976562 C 602.988281 409.542969 603.667969 407.09375 604.269531 404.617188 C 604.871094 402.144531 605.394531 399.65625 605.839844 397.148438 C 606.285156 394.640625 606.652344 392.125 606.9375 389.59375 C 607.222656 387.0625 607.425781 384.527344 607.550781 381.984375 C 607.675781 379.441406 607.71875 376.898438 607.683594 374.351562 C 607.648438 371.808594 607.53125 369.265625 607.332031 366.726562 C 607.136719 364.1875 606.859375 361.660156 606.5 359.136719 C 606.144531 356.617188 605.707031 354.109375 605.191406 351.617188 C 604.675781 349.125 604.082031 346.652344 603.40625 344.195312 C 602.734375 341.742188 601.984375 339.308594 601.15625 336.902344 C 600.332031 334.492188 599.429688 332.113281 598.453125 329.761719 C 597.472656 327.414062 596.421875 325.09375 595.300781 322.8125 C 594.175781 320.527344 592.980469 318.28125 591.714844 316.070312 C 590.445312 313.863281 589.113281 311.695312 587.707031 309.574219 C 586.304688 307.449219 584.835938 305.371094 583.300781 303.339844 C 581.765625 301.308594 580.167969 299.328125 578.507812 297.398438 C 576.847656 295.46875 575.128906 293.59375 573.347656 291.773438 C 571.570312 289.953125 569.734375 288.191406 567.84375 286.484375 C 565.953125 284.78125 564.007812 283.136719 562.015625 281.554688 C 560.019531 279.972656 557.976562 278.457031 555.886719 277.003906 C 553.792969 275.550781 551.660156 274.167969 549.480469 272.851562 C 547.304688 271.53125 545.085938 270.285156 542.828125 269.109375 C 540.570312 267.933594 538.277344 266.828125 535.949219 265.796875 C 533.621094 264.765625 531.265625 263.808594 528.875 262.925781 C 526.488281 262.042969 524.074219 261.238281 521.636719 260.507812 C 519.195312 259.777344 516.738281 259.125 514.257812 258.554688 C 511.777344 257.980469 509.28125 257.484375 506.769531 257.070312 C 504.257812 256.652344 501.734375 256.316406 499.203125 256.0625 C 496.667969 255.804688 494.128906 255.628906 491.585938 255.535156 C 489.042969 255.4375 486.496094 255.425781 483.953125 255.488281 C 481.40625 255.554688 478.867188 255.703125 476.332031 255.929688 C 473.796875 256.15625 471.269531 256.460938 468.753906 256.847656 C 466.238281 257.234375 463.734375 257.699219 461.25 258.246094 C 458.761719 258.792969 456.292969 259.414062 453.847656 260.117188 C 451.398438 260.816406 448.976562 261.59375 446.578125 262.449219 C 444.179688 263.304688 441.8125 264.234375 439.472656 265.238281 C 437.132812 266.242188 434.828125 267.320312 432.558594 268.46875 C 430.285156 269.621094 428.054688 270.84375 425.859375 272.132812 C 423.667969 273.425781 421.515625 274.785156 419.410156 276.214844 C 417.300781 277.640625 415.242188 279.136719 413.226562 280.695312 C 411.214844 282.253906 409.253906 283.871094 407.34375 285.554688 C 405.433594 287.238281 403.578125 288.980469 401.777344 290.78125 C 399.976562 292.582031 398.234375 294.433594 396.550781 296.347656 C 394.871094 298.257812 393.25 300.21875 391.691406 302.230469 C 390.132812 304.246094 388.636719 306.304688 387.210938 308.414062 C 385.78125 310.519531 384.421875 312.671875 383.128906 314.863281 C 381.839844 317.058594 380.617188 319.289062 379.46875 321.5625 C 378.316406 323.832031 377.238281 326.136719 376.234375 328.476562 C 375.230469 330.816406 374.300781 333.183594 373.445312 335.582031 C 372.589844 337.980469 371.8125 340.402344 371.113281 342.851562 C 370.410156 345.296875 369.789062 347.765625 369.242188 350.253906 C 368.699219 352.738281 368.230469 355.242188 367.84375 357.757812 C 367.457031 360.273438 367.152344 362.800781 366.925781 365.335938 C 366.699219 367.871094 366.550781 370.410156 366.488281 372.957031 C 366.421875 375.5 366.433594 378.046875 366.53125 380.589844 C 366.625 383.132812 366.800781 385.671875 367.058594 388.203125 C 367.3125 390.738281 367.648438 393.261719 368.066406 395.773438 C 368.480469 398.285156 368.976562 400.78125 369.550781 403.261719 C 370.125 405.742188 370.773438 408.199219 371.503906 410.640625 C 372.234375 413.078125 373.039062 415.492188 373.921875 417.878906 C 374.804688 420.269531 375.761719 422.625 376.792969 424.953125 C 377.824219 427.28125 378.929688 429.574219 380.105469 431.832031 C 381.28125 434.089844 382.527344 436.304688 383.847656 438.484375 C 385.164062 440.664062 386.546875 442.796875 388 444.890625 C 389.453125 446.980469 390.96875 449.023438 392.550781 451.019531 C 394.132812 453.011719 395.777344 454.957031 397.480469 456.847656 C 399.1875 458.738281 400.949219 460.570312 402.769531 462.351562 C 404.589844 464.128906 406.464844 465.851562 408.394531 467.511719 C 410.324219 469.171875 412.304688 470.769531 414.335938 472.304688 C 416.367188 473.839844 418.445312 475.308594 420.570312 476.710938 C 422.695312 478.117188 424.859375 479.449219 427.066406 480.71875 C 429.277344 481.984375 431.523438 483.179688 433.808594 484.304688 C 436.089844 485.425781 438.410156 486.476562 440.757812 487.457031 C 443.109375 488.433594 445.488281 489.335938 447.898438 490.160156 C 450.304688 490.988281 452.738281 491.738281 455.191406 492.410156 C 457.648438 493.082031 460.121094 493.679688 462.613281 494.195312 C 465.109375 494.710938 467.613281 495.148438 470.136719 495.503906 C 472.65625 495.863281 475.183594 496.140625 477.722656 496.335938 C 480.261719 496.535156 482.804688 496.652344 485.347656 496.6875 C 487.894531 496.722656 490.4375 496.679688 492.980469 496.554688 C 495.523438 496.429688 498.058594 496.226562 500.589844 495.941406 C 503.121094 495.65625 505.636719 495.289062 508.144531 494.84375 C 510.652344 494.398438 513.140625 493.875 515.617188 493.273438 C 518.089844 492.671875 520.539062 491.992188 522.972656 491.234375 C 525.402344 490.476562 527.804688 489.640625 530.183594 488.730469 C 532.5625 487.824219 534.90625 486.839844 537.222656 485.78125 C 539.539062 484.722656 541.816406 483.589844 544.0625 482.386719 C 546.304688 481.183594 548.507812 479.914062 550.671875 478.570312 C 552.835938 477.226562 554.953125 475.820312 557.027344 474.34375 C 559.101562 472.867188 561.128906 471.324219 563.105469 469.71875 L 592.457031 499.199219 C 591.617188 500.902344 590.910156 502.664062 590.34375 504.476562 C 589.773438 506.289062 589.347656 508.136719 589.066406 510.015625 C 588.785156 511.894531 588.652344 513.785156 588.664062 515.6875 C 588.675781 517.585938 588.835938 519.472656 589.144531 521.351562 C 589.449219 523.226562 589.898438 525.066406 590.492188 526.871094 C 591.082031 528.679688 591.8125 530.425781 592.675781 532.121094 C 593.539062 533.8125 594.53125 535.429688 595.644531 536.964844 C 596.761719 538.503906 597.988281 539.949219 599.328125 541.296875 L 652.792969 594.761719 C 653.644531 595.609375 654.535156 596.414062 655.464844 597.175781 C 656.398438 597.9375 657.363281 598.652344 658.363281 599.320312 C 659.363281 599.988281 660.394531 600.605469 661.457031 601.171875 C 662.519531 601.738281 663.605469 602.25 664.71875 602.710938 C 665.828125 603.171875 666.960938 603.574219 668.113281 603.921875 C 669.261719 604.273438 670.429688 604.5625 671.609375 604.796875 C 672.789062 605.03125 673.976562 605.207031 675.175781 605.324219 C 676.371094 605.445312 677.570312 605.503906 678.773438 605.503906 C 679.976562 605.503906 681.179688 605.445312 682.375 605.324219 C 683.570312 605.207031 684.761719 605.03125 685.941406 604.796875 C 687.121094 604.5625 688.285156 604.273438 689.4375 603.921875 C 690.589844 603.574219 691.71875 603.171875 692.832031 602.710938 C 693.945312 602.25 695.03125 601.738281 696.09375 601.171875 C 697.152344 600.605469 698.183594 599.988281 699.1875 599.320312 C 700.1875 598.652344 701.152344 597.9375 702.082031 597.175781 C 703.015625 596.414062 703.90625 595.609375 704.757812 594.761719 L 705.757812 593.761719 C 706.605469 592.910156 707.410156 592.015625 708.171875 591.085938 C 708.9375 590.15625 709.652344 589.191406 710.316406 588.1875 C 710.984375 587.1875 711.601562 586.15625 712.167969 585.09375 C 712.734375 584.035156 713.246094 582.949219 713.707031 581.835938 C 714.167969 580.722656 714.570312 579.59375 714.917969 578.441406 C 715.269531 577.289062 715.558594 576.125 715.792969 574.945312 C 716.027344 573.765625 716.203125 572.574219 716.320312 571.378906 C 716.441406 570.179688 716.5 568.980469 716.5 567.777344 C 716.5 566.574219 716.441406 565.375 716.320312 564.179688 C 716.203125 562.980469 716.027344 561.792969 715.792969 560.613281 C 715.558594 559.433594 715.269531 558.265625 714.917969 557.113281 C 714.570312 555.964844 714.167969 554.832031 713.707031 553.71875 C 713.246094 552.609375 712.734375 551.523438 712.167969 550.460938 C 711.601562 549.398438 710.984375 548.367188 710.316406 547.367188 C 709.652344 546.367188 708.9375 545.402344 708.171875 544.46875 C 707.410156 543.539062 706.605469 542.648438 705.757812 541.796875 Z M 419.453125 443.738281 C 418.34375 442.632812 417.265625 441.496094 416.214844 440.335938 C 415.164062 439.175781 414.140625 437.992188 413.148438 436.78125 C 412.152344 435.570312 411.191406 434.339844 410.257812 433.082031 C 409.324219 431.824219 408.425781 430.542969 407.554688 429.242188 C 406.683594 427.941406 405.847656 426.617188 405.042969 425.273438 C 404.238281 423.933594 403.46875 422.570312 402.730469 421.191406 C 401.992188 419.808594 401.289062 418.410156 400.617188 416.996094 C 399.949219 415.582031 399.3125 414.148438 398.714844 412.703125 C 398.117188 411.257812 397.554688 409.796875 397.027344 408.324219 C 396.496094 406.847656 396.007812 405.363281 395.550781 403.863281 C 395.097656 402.367188 394.679688 400.859375 394.300781 399.339844 C 393.917969 397.820312 393.578125 396.292969 393.273438 394.757812 C 392.964844 393.222656 392.699219 391.679688 392.46875 390.132812 C 392.238281 388.582031 392.046875 387.03125 391.894531 385.472656 C 391.742188 383.914062 391.625 382.355469 391.546875 380.789062 C 391.472656 379.226562 391.433594 377.660156 391.433594 376.097656 C 391.433594 374.53125 391.472656 372.964844 391.546875 371.402344 C 391.625 369.839844 391.742188 368.277344 391.894531 366.71875 C 392.046875 365.160156 392.238281 363.609375 392.46875 362.058594 C 392.699219 360.511719 392.964844 358.96875 393.269531 357.433594 C 393.578125 355.898438 393.917969 354.371094 394.300781 352.851562 C 394.679688 351.335938 395.097656 349.824219 395.550781 348.328125 C 396.007812 346.828125 396.496094 345.34375 397.023438 343.871094 C 397.550781 342.394531 398.117188 340.933594 398.714844 339.488281 C 399.3125 338.042969 399.949219 336.613281 400.617188 335.195312 C 401.285156 333.78125 401.992188 332.382812 402.730469 331.003906 C 403.464844 329.621094 404.238281 328.261719 405.042969 326.917969 C 405.847656 325.574219 406.683594 324.253906 407.554688 322.949219 C 408.425781 321.648438 409.324219 320.371094 410.257812 319.113281 C 411.191406 317.855469 412.152344 316.621094 413.148438 315.410156 C 414.140625 314.199219 415.164062 313.015625 416.214844 311.855469 C 417.265625 310.695312 418.34375 309.5625 419.453125 308.453125 C 420.558594 307.347656 421.691406 306.269531 422.851562 305.21875 C 424.011719 304.164062 425.195312 303.144531 426.40625 302.148438 C 427.617188 301.15625 428.851562 300.195312 430.109375 299.261719 C 431.367188 298.328125 432.644531 297.429688 433.949219 296.558594 C 435.25 295.6875 436.570312 294.851562 437.914062 294.046875 C 439.257812 293.242188 440.617188 292.46875 442 291.730469 C 443.378906 290.992188 444.777344 290.289062 446.191406 289.621094 C 447.609375 288.953125 449.039062 288.316406 450.484375 287.71875 C 451.933594 287.117188 453.390625 286.554688 454.867188 286.027344 C 456.339844 285.5 457.828125 285.011719 459.324219 284.554688 C 460.824219 284.101562 462.332031 283.683594 463.851562 283.304688 C 465.367188 282.921875 466.894531 282.578125 468.429688 282.273438 C 469.964844 281.96875 471.507812 281.703125 473.058594 281.472656 C 474.605469 281.242188 476.160156 281.050781 477.714844 280.898438 C 479.273438 280.742188 480.835938 280.628906 482.398438 280.550781 C 483.964844 280.476562 485.527344 280.4375 487.09375 280.4375 C 488.660156 280.4375 490.222656 280.476562 491.785156 280.550781 C 493.351562 280.628906 494.910156 280.742188 496.46875 280.898438 C 498.027344 281.050781 499.582031 281.242188 501.128906 281.472656 C 502.679688 281.703125 504.21875 281.96875 505.753906 282.273438 C 507.289062 282.578125 508.816406 282.921875 510.335938 283.304688 C 511.855469 283.683594 513.363281 284.101562 514.863281 284.554688 C 516.359375 285.011719 517.847656 285.5 519.320312 286.027344 C 520.792969 286.554688 522.253906 287.117188 523.699219 287.71875 C 525.148438 288.316406 526.578125 288.953125 527.992188 289.621094 C 529.40625 290.289062 530.804688 290.992188 532.1875 291.730469 C 533.566406 292.46875 534.929688 293.242188 536.273438 294.046875 C 537.613281 294.851562 538.9375 295.6875 540.238281 296.558594 C 541.539062 297.425781 542.820312 298.328125 544.078125 299.261719 C 545.335938 300.195312 546.570312 301.15625 547.777344 302.148438 C 548.988281 303.144531 550.175781 304.164062 551.335938 305.21875 C 552.496094 306.269531 553.628906 307.347656 554.734375 308.453125 C 555.84375 309.5625 556.921875 310.695312 557.972656 311.855469 C 559.023438 313.015625 560.046875 314.199219 561.039062 315.410156 C 562.03125 316.621094 562.996094 317.855469 563.929688 319.113281 C 564.859375 320.371094 565.761719 321.648438 566.632812 322.949219 C 567.5 324.253906 568.339844 325.574219 569.144531 326.917969 C 569.949219 328.261719 570.71875 329.621094 571.457031 331.003906 C 572.195312 332.382812 572.898438 333.78125 573.570312 335.195312 C 574.238281 336.613281 574.871094 338.042969 575.472656 339.488281 C 576.070312 340.933594 576.632812 342.394531 577.160156 343.871094 C 577.6875 345.34375 578.179688 346.828125 578.632812 348.328125 C 579.089844 349.824219 579.503906 351.335938 579.886719 352.851562 C 580.265625 354.371094 580.609375 355.898438 580.914062 357.433594 C 581.21875 358.96875 581.488281 360.511719 581.71875 362.058594 C 581.945312 363.609375 582.140625 365.160156 582.292969 366.71875 C 582.445312 368.277344 582.5625 369.839844 582.636719 371.402344 C 582.714844 372.964844 582.753906 374.53125 582.753906 376.097656 C 582.753906 377.660156 582.714844 379.226562 582.636719 380.789062 C 582.5625 382.355469 582.445312 383.914062 582.292969 385.472656 C 582.136719 387.03125 581.945312 388.582031 581.71875 390.132812 C 581.488281 391.679688 581.21875 393.222656 580.914062 394.757812 C 580.609375 396.292969 580.265625 397.820312 579.886719 399.339844 C 579.503906 400.859375 579.089844 402.367188 578.632812 403.863281 C 578.179688 405.363281 577.6875 406.847656 577.160156 408.324219 C 576.632812 409.796875 576.070312 411.257812 575.472656 412.703125 C 574.871094 414.148438 574.238281 415.582031 573.566406 416.996094 C 572.898438 418.410156 572.195312 419.808594 571.457031 421.191406 C 570.71875 422.570312 569.949219 423.933594 569.144531 425.273438 C 568.339844 426.617188 567.5 427.941406 566.632812 429.242188 C 565.761719 430.542969 564.859375 431.824219 563.925781 433.082031 C 562.996094 434.339844 562.03125 435.570312 561.039062 436.78125 C 560.046875 437.992188 559.023438 439.175781 557.972656 440.335938 C 556.921875 441.496094 555.839844 442.632812 554.734375 443.738281 C 553.625 444.839844 552.488281 445.917969 551.328125 446.964844 C 550.167969 448.011719 548.980469 449.03125 547.769531 450.023438 C 546.558594 451.011719 545.320312 451.972656 544.0625 452.898438 C 542.804688 453.828125 541.523438 454.726562 540.222656 455.59375 C 538.917969 456.460938 537.597656 457.296875 536.253906 458.097656 C 534.910156 458.898438 533.546875 459.667969 532.167969 460.402344 C 530.785156 461.140625 529.386719 461.839844 527.972656 462.507812 C 526.558594 463.171875 525.128906 463.804688 523.679688 464.402344 C 522.234375 465 520.777344 465.5625 519.300781 466.085938 C 517.828125 466.613281 516.34375 467.101562 514.84375 467.554688 C 513.347656 468.007812 511.839844 468.421875 510.320312 468.800781 C 508.804688 469.179688 507.277344 469.519531 505.742188 469.824219 C 504.207031 470.128906 502.667969 470.394531 501.121094 470.625 C 499.574219 470.855469 498.019531 471.042969 496.464844 471.199219 C 494.90625 471.351562 493.347656 471.464844 491.785156 471.542969 C 490.222656 471.617188 488.65625 471.65625 487.09375 471.65625 C 485.527344 471.65625 483.964844 471.617188 482.402344 471.542969 C 480.839844 471.464844 479.28125 471.351562 477.722656 471.199219 C 476.167969 471.042969 474.613281 470.855469 473.066406 470.625 C 471.519531 470.394531 469.976562 470.128906 468.441406 469.824219 C 466.910156 469.519531 465.382812 469.179688 463.863281 468.800781 C 462.347656 468.421875 460.839844 468.007812 459.339844 467.554688 C 457.84375 467.101562 456.359375 466.613281 454.882812 466.085938 C 453.410156 465.5625 451.953125 465 450.503906 464.402344 C 449.058594 463.804688 447.628906 463.171875 446.214844 462.507812 C 444.796875 461.839844 443.398438 461.140625 442.019531 460.402344 C 440.636719 459.667969 439.277344 458.898438 437.933594 458.097656 C 436.589844 457.296875 435.265625 456.460938 433.964844 455.59375 C 432.660156 454.726562 431.382812 453.828125 430.121094 452.898438 C 428.863281 451.972656 427.628906 451.011719 426.417969 450.023438 C 425.207031 449.03125 424.019531 448.011719 422.859375 446.964844 C 421.695312 445.917969 420.5625 444.839844 419.453125 443.738281 Z M 419.453125 443.738281 " fill-opacity="1" fill-rule="nonzero"/><g clip-path="url(#809c0a8ae5)"><g clip-path="url(#8f3c2c0fd9)"><g clip-path="url(#3f70483c37)"><g clip-path="url(#adce6b6d55)"><g clip-path="url(#39e277c652)"><g clip-path="url(#0830d17e76)"><path fill="#100f0d" d="M 426.6875 386.066406 C 426.6875 386.066406 430.582031 399.15625 442.378906 413.601562 C 459.003906 433.96875 501.597656 451.917969 535.023438 409.519531 C 540.25 402.894531 544.007812 395.292969 548.160156 384.5 C 548.160156 384.5 530.28125 415.144531 492.710938 419.128906 C 473.222656 421.195312 451.476562 415.9375 426.6875 386.066406 " fill-opacity="1" fill-rule="nonzero"/></g></g></g></g></g></g><g clip-path="url(#53d7b46760)"><g clip-path="url(#31a7972615)"><g clip-path="url(#cfa4c0f09e)"><g clip-path="url(#d011cf9160)"><g clip-path="url(#fb22e5d2c6)"><g clip-path="url(#cbcf7d287a)"><path fill="#100f0d" d="M 563.972656 379.109375 C 563.5625 378.953125 563.105469 379.007812 562.714844 379.203125 C 560.976562 380.074219 558.976562 380.476562 556.898438 380.265625 C 551.726562 379.742188 547.804688 375.589844 547.394531 370.59375 C 547.347656 370.035156 547.015625 369.542969 546.5 369.3125 C 545.464844 368.855469 544.285156 369.65625 544.371094 370.785156 C 544.871094 377.234375 549.925781 382.601562 556.59375 383.28125 C 559.292969 383.554688 561.886719 383.019531 564.136719 381.875 C 565.277344 381.296875 565.230469 379.605469 563.972656 379.109375 " fill-opacity="1" fill-rule="nonzero"/></g></g></g></g></g></g><g clip-path="url(#725a2c8e0f)"><g clip-path="url(#ace3226b81)"><g clip-path="url(#021a2af510)"><g clip-path="url(#04f7dd01ce)"><path fill="#100f0d" d="M 428.628906 371.421875 C 428.28125 371.6875 428.09375 372.105469 428.058594 372.542969 C 427.90625 374.480469 427.222656 376.398438 425.96875 378.070312 C 422.847656 382.222656 417.265625 383.4375 412.773438 381.207031 C 412.269531 380.957031 411.671875 380.988281 411.210938 381.3125 C 410.285156 381.960938 410.363281 383.382812 411.375 383.890625 C 417.160156 386.796875 424.371094 385.242188 428.394531 379.886719 C 430.019531 377.71875 430.902344 375.222656 431.082031 372.707031 C 431.175781 371.429688 429.703125 370.597656 428.628906 371.421875 " fill-opacity="1" fill-rule="nonzero"/></g></g></g></g><g clip-path="url(#db50e2abff)"><g clip-path="url(#bf30c57bd2)"><path fill="#231f20" d="M 449.863281 343.363281 L 474.488281 343.363281 L 474.488281 367.988281 L 449.863281 367.988281 Z M 449.863281 343.363281 " fill-opacity="1" fill-rule="nonzero"/></g></g><g clip-path="url(#5c7c173a05)"><g clip-path="url(#23e6c3a0e5)"><path fill="#231f20" d="M 493.3125 348.53125 L 530.976562 348.53125 L 530.976562 360.1875 L 493.3125 360.1875 Z M 493.3125 348.53125 " fill-opacity="1" fill-rule="nonzero"/></g></g></svg>